<mxfile host="app.diagrams.net" agent="Mozilla/5.0 (X11; Linux x86_64; rv:133.0) Gecko/20100101 Firefox/133.0" version="25.0.3">
  <diagram name="Page-1" id="jlB195uR0Wg73IOmR0U3">
    <mxGraphModel dx="1436" dy="837" grid="1" gridSize="10" guides="1" tooltips="1" connect="1" arrows="1" fold="1" page="1" pageScale="1" pageWidth="1169" pageHeight="827" math="0" shadow="0">
      <root>
        <mxCell id="0" />
        <mxCell id="1" parent="0" />
        <mxCell id="3ExJg2iDRrv_fcJFM0sg-13" value="" style="rounded=0;whiteSpace=wrap;html=1;fillColor=#d5e8d4;strokeColor=#82b366;" vertex="1" parent="1">
          <mxGeometry x="650" y="40" width="210" height="120" as="geometry" />
        </mxCell>
        <mxCell id="3ExJg2iDRrv_fcJFM0sg-10" value="MongoDB&lt;br&gt;read repl" style="shape=cylinder3;whiteSpace=wrap;html=1;boundedLbl=1;backgroundOutline=1;size=15;" vertex="1" parent="1">
          <mxGeometry x="773" y="69" width="60" height="80" as="geometry" />
        </mxCell>
        <mxCell id="3ExJg2iDRrv_fcJFM0sg-6" value="&lt;div&gt;Data processor&lt;/div&gt;&lt;div&gt;microservice&lt;br&gt;&lt;/div&gt;" style="whiteSpace=wrap;html=1;aspect=fixed;" vertex="1" parent="1">
          <mxGeometry x="460" y="194" width="80" height="80" as="geometry" />
        </mxCell>
        <mxCell id="3ExJg2iDRrv_fcJFM0sg-4" value="&lt;div&gt;Data processor&lt;/div&gt;&lt;div&gt;microservice&lt;br&gt;&lt;/div&gt;" style="whiteSpace=wrap;html=1;aspect=fixed;" vertex="1" parent="1">
          <mxGeometry x="450" y="180" width="80" height="80" as="geometry" />
        </mxCell>
        <mxCell id="3ExJg2iDRrv_fcJFM0sg-1" value="AWS&lt;br&gt;&lt;div&gt;EventBridge&lt;/div&gt;&lt;div&gt;rule&lt;/div&gt;" style="ellipse;whiteSpace=wrap;html=1;aspect=fixed;" vertex="1" parent="1">
          <mxGeometry x="70" y="160" width="80" height="80" as="geometry" />
        </mxCell>
        <mxCell id="3ExJg2iDRrv_fcJFM0sg-2" value="&lt;div&gt;Data processor&lt;/div&gt;&lt;div&gt;microservice&lt;br&gt;&lt;/div&gt;" style="whiteSpace=wrap;html=1;aspect=fixed;" vertex="1" parent="1">
          <mxGeometry x="439" y="160" width="80" height="80" as="geometry" />
        </mxCell>
        <mxCell id="3ExJg2iDRrv_fcJFM0sg-3" value="&lt;div&gt;Load&amp;nbsp;&lt;/div&gt;&lt;div&gt;Balancer&lt;/div&gt;" style="rhombus;whiteSpace=wrap;html=1;" vertex="1" parent="1">
          <mxGeometry x="250" y="160" width="80" height="80" as="geometry" />
        </mxCell>
        <mxCell id="3ExJg2iDRrv_fcJFM0sg-8" value="MongoDB&lt;br&gt;write repl" style="shape=cylinder3;whiteSpace=wrap;html=1;boundedLbl=1;backgroundOutline=1;size=15;" vertex="1" parent="1">
          <mxGeometry x="680" y="60" width="60" height="80" as="geometry" />
        </mxCell>
        <mxCell id="3ExJg2iDRrv_fcJFM0sg-9" value="MongoDB&lt;br&gt;read repl" style="shape=cylinder3;whiteSpace=wrap;html=1;boundedLbl=1;backgroundOutline=1;size=15;" vertex="1" parent="1">
          <mxGeometry x="760" y="60" width="60" height="80" as="geometry" />
        </mxCell>
        <mxCell id="3ExJg2iDRrv_fcJFM0sg-14" value="&lt;div align=&quot;center&quot;&gt;ATLAS CLOUD&lt;/div&gt;" style="text;strokeColor=none;fillColor=none;align=center;verticalAlign=middle;spacingLeft=4;spacingRight=4;overflow=hidden;points=[[0,0.5],[1,0.5]];portConstraint=eastwest;rotatable=0;whiteSpace=wrap;html=1;" vertex="1" parent="1">
          <mxGeometry x="700" y="10" width="120" height="30" as="geometry" />
        </mxCell>
        <mxCell id="3ExJg2iDRrv_fcJFM0sg-16" value="" style="endArrow=classic;html=1;rounded=0;entryX=0.092;entryY=0.348;entryDx=0;entryDy=0;entryPerimeter=0;" edge="1" parent="1" target="3ExJg2iDRrv_fcJFM0sg-8">
          <mxGeometry width="50" height="50" relative="1" as="geometry">
            <mxPoint x="519" y="160" as="sourcePoint" />
            <mxPoint x="630" y="110" as="targetPoint" />
          </mxGeometry>
        </mxCell>
        <mxCell id="3ExJg2iDRrv_fcJFM0sg-17" value="" style="endArrow=classic;html=1;rounded=0;exitX=0.968;exitY=0.59;exitDx=0;exitDy=0;exitPerimeter=0;" edge="1" parent="1" source="3ExJg2iDRrv_fcJFM0sg-8">
          <mxGeometry width="50" height="50" relative="1" as="geometry">
            <mxPoint x="730" y="106" as="sourcePoint" />
            <mxPoint x="760" y="106" as="targetPoint" />
          </mxGeometry>
        </mxCell>
        <mxCell id="3ExJg2iDRrv_fcJFM0sg-21" value="" style="endArrow=classic;html=1;rounded=0;exitX=1;exitY=0.5;exitDx=0;exitDy=0;entryX=0;entryY=0.5;entryDx=0;entryDy=0;" edge="1" parent="1" source="3ExJg2iDRrv_fcJFM0sg-1" target="3ExJg2iDRrv_fcJFM0sg-3">
          <mxGeometry width="50" height="50" relative="1" as="geometry">
            <mxPoint x="400" y="210" as="sourcePoint" />
            <mxPoint x="450" y="160" as="targetPoint" />
          </mxGeometry>
        </mxCell>
        <mxCell id="3ExJg2iDRrv_fcJFM0sg-22" value="" style="endArrow=classic;html=1;rounded=0;exitX=1;exitY=0.5;exitDx=0;exitDy=0;entryX=0;entryY=0.5;entryDx=0;entryDy=0;" edge="1" parent="1" source="3ExJg2iDRrv_fcJFM0sg-3" target="3ExJg2iDRrv_fcJFM0sg-2">
          <mxGeometry width="50" height="50" relative="1" as="geometry">
            <mxPoint x="400" y="210" as="sourcePoint" />
            <mxPoint x="450" y="160" as="targetPoint" />
          </mxGeometry>
        </mxCell>
        <mxCell id="3ExJg2iDRrv_fcJFM0sg-23" value="&lt;div&gt;API&lt;/div&gt;&lt;div&gt;microservice&lt;br&gt;&lt;/div&gt;" style="shape=hexagon;perimeter=hexagonPerimeter2;whiteSpace=wrap;html=1;fixedSize=1;" vertex="1" parent="1">
          <mxGeometry x="745" y="390" width="120" height="80" as="geometry" />
        </mxCell>
        <mxCell id="3ExJg2iDRrv_fcJFM0sg-24" value="ECS Fargate" style="text;html=1;align=center;verticalAlign=middle;whiteSpace=wrap;rounded=0;" vertex="1" parent="1">
          <mxGeometry x="450" y="119" width="60" height="30" as="geometry" />
        </mxCell>
        <mxCell id="3ExJg2iDRrv_fcJFM0sg-25" value="JSON" style="ellipse;whiteSpace=wrap;html=1;" vertex="1" parent="1">
          <mxGeometry x="450" y="310" width="80" height="40" as="geometry" />
        </mxCell>
        <mxCell id="3ExJg2iDRrv_fcJFM0sg-26" value="" style="endArrow=classic;html=1;rounded=0;entryX=0.5;entryY=0;entryDx=0;entryDy=0;" edge="1" parent="1" target="3ExJg2iDRrv_fcJFM0sg-25">
          <mxGeometry width="50" height="50" relative="1" as="geometry">
            <mxPoint x="490" y="280" as="sourcePoint" />
            <mxPoint x="490" y="280" as="targetPoint" />
          </mxGeometry>
        </mxCell>
        <mxCell id="3ExJg2iDRrv_fcJFM0sg-27" value="Monitoring&lt;br&gt;CloudWatch " style="shape=parallelogram;perimeter=parallelogramPerimeter;whiteSpace=wrap;html=1;fixedSize=1;" vertex="1" parent="1">
          <mxGeometry x="430" y="20" width="120" height="60" as="geometry" />
        </mxCell>
        <mxCell id="3ExJg2iDRrv_fcJFM0sg-31" value="User" style="shape=umlActor;verticalLabelPosition=bottom;verticalAlign=top;html=1;outlineConnect=0;" vertex="1" parent="1">
          <mxGeometry x="590" y="400" width="30" height="60" as="geometry" />
        </mxCell>
        <mxCell id="3ExJg2iDRrv_fcJFM0sg-32" value="" style="endArrow=classic;html=1;rounded=0;" edge="1" parent="1">
          <mxGeometry width="50" height="50" relative="1" as="geometry">
            <mxPoint x="635" y="430" as="sourcePoint" />
            <mxPoint x="735" y="430" as="targetPoint" />
          </mxGeometry>
        </mxCell>
        <mxCell id="3ExJg2iDRrv_fcJFM0sg-34" value="ElastiCache&lt;br&gt;optional" style="shape=cylinder3;whiteSpace=wrap;html=1;boundedLbl=1;backgroundOutline=1;size=15;fillColor=#f8cecc;strokeColor=#b85450;" vertex="1" parent="1">
          <mxGeometry x="770" y="530" width="70" height="80" as="geometry" />
        </mxCell>
        <mxCell id="3ExJg2iDRrv_fcJFM0sg-35" value="" style="endArrow=classic;startArrow=classic;html=1;rounded=0;" edge="1" parent="1">
          <mxGeometry width="50" height="50" relative="1" as="geometry">
            <mxPoint x="810" y="470" as="sourcePoint" />
            <mxPoint x="810" y="530" as="targetPoint" />
          </mxGeometry>
        </mxCell>
        <mxCell id="3ExJg2iDRrv_fcJFM0sg-36" value="" style="endArrow=classic;html=1;rounded=0;entryX=0.75;entryY=1;entryDx=0;entryDy=0;exitX=0.5;exitY=0;exitDx=0;exitDy=0;" edge="1" parent="1" source="3ExJg2iDRrv_fcJFM0sg-23" target="3ExJg2iDRrv_fcJFM0sg-13">
          <mxGeometry width="50" height="50" relative="1" as="geometry">
            <mxPoint x="650" y="420" as="sourcePoint" />
            <mxPoint x="700" y="370" as="targetPoint" />
          </mxGeometry>
        </mxCell>
        <mxCell id="3ExJg2iDRrv_fcJFM0sg-37" value="Monitoring&lt;br&gt;CloudWatch " style="shape=parallelogram;perimeter=parallelogramPerimeter;whiteSpace=wrap;html=1;fixedSize=1;" vertex="1" parent="1">
          <mxGeometry x="920" y="400" width="120" height="60" as="geometry" />
        </mxCell>
        <mxCell id="3ExJg2iDRrv_fcJFM0sg-38" value="Monitoring and logging&lt;br&gt;DataDog or NewRelic &lt;br&gt;Prometheus + Grafana" style="text;html=1;whiteSpace=wrap;overflow=hidden;rounded=0;" vertex="1" parent="1">
          <mxGeometry x="970" y="40" width="180" height="120" as="geometry" />
        </mxCell>
        <mxCell id="3ExJg2iDRrv_fcJFM0sg-39" value="&lt;strong&gt;&lt;font style=&quot;font-size: 20px;&quot;&gt;Simple Approach&lt;/font&gt;&lt;/strong&gt;&lt;ul&gt;&lt;li&gt;This design involves a basic load balancer that redirects JSON data to be processed by microservices.&lt;/li&gt;&lt;li&gt;Within each microservice, data is received, processed as a stream, and stored in bulk batches.&lt;/li&gt;&lt;li&gt;The microservices and database instances (e.g., Atlas or self-hosted in AWS) can be scaled easily to handle relatively high loads.&lt;/li&gt;&lt;li&gt;I have already developed a JSON ingestion consumer for this approach. While straightforward, this solution lacks some of the advanced features that message brokers provide.&lt;/li&gt;&lt;/ul&gt;" style="text;html=1;whiteSpace=wrap;overflow=hidden;rounded=0;" vertex="1" parent="1">
          <mxGeometry x="40" y="660" width="1050" height="120" as="geometry" />
        </mxCell>
        <mxCell id="3ExJg2iDRrv_fcJFM0sg-40" value="S3 &lt;br&gt;Data lake" style="shape=cylinder3;whiteSpace=wrap;html=1;boundedLbl=1;backgroundOutline=1;size=15;fillColor=#dae8fc;strokeColor=#6c8ebf;" vertex="1" parent="1">
          <mxGeometry x="585" y="240" width="60" height="80" as="geometry" />
        </mxCell>
        <mxCell id="3ExJg2iDRrv_fcJFM0sg-41" value="" style="endArrow=classic;html=1;rounded=0;" edge="1" parent="1">
          <mxGeometry width="50" height="50" relative="1" as="geometry">
            <mxPoint x="520" y="204" as="sourcePoint" />
            <mxPoint x="580" y="280" as="targetPoint" />
          </mxGeometry>
        </mxCell>
      </root>
    </mxGraphModel>
  </diagram>
</mxfile>
